# xmcd
#
# Track frame offsets:
#	150
#	18652
#	37828
#	48770
#	68083
#	84317
#	102137
#	126155
#	155070
#	171324
#
# Disc length: 2753 seconds
#
# Revision: 1
# Processed by: cddbd v1.5.2PL0 Copyright (c) Steve Scherf et al.
# Submitted via: audiograbber 1.83.01
#
DISCID=770abf0a
DTITLE=Koivuniemen Herrat - Jotain Uutta Auringon Alla
DYEAR=2012
DGENRE=Rap
TTITLE0=Vapaa
TTITLE1=Kassufunk
TTITLE2=Aika Muuttaa
TTITLE3=Mut Ehkä Toisaalta...
TTITLE4=Yrittäjähenkee
TTITLE5=Maailma Muuttuu
TTITLE6=Pikkukala
TTITLE7=Pykälä 25
TTITLE8=Satumaa
TTITLE9=Ihminen
EXTD=
EXTT0=
EXTT1=
EXTT2=
EXTT3=
EXTT4=
EXTT5=
EXTT6=
EXTT7=
EXTT8=
EXTT9=
PLAYORDER=
